<?xml version='1.0' encoding='utf-8'?>
<svg xmlns="http://www.w3.org/2000/svg" xmlns:xlink="http://www.w3.org/1999/xlink" viewBox="0 0 800 400">
  <defs>
    <linearGradient id="emblem-gradient" x1="0%" y1="0%" x2="100%" y2="100%">
      <stop offset="0%" stop-color="#386BB7" />
      <stop offset="100%" stop-color="#E24C4A" />
    </linearGradient>
    <linearGradient id="text-gradient-bold" x1="0%" y1="0%" x2="100%" y2="0%">
      <stop offset="0%" stop-color="#386BB7" />
      <stop offset="100%" stop-color="#E24C4A" />
    </linearGradient>
    <linearGradient id="text-gradient-subtle" x1="0%" y1="0%" x2="100%" y2="0%">
      <stop offset="0%" stop-color="#1E3A52" />
      <stop offset="100%" stop-color="#386BB7" />
    </linearGradient>
    <filter id="drop-shadow">
      <feGaussianBlur in="SourceAlpha" stdDeviation="2" />
      <feOffset dx="0" dy="1" />
      <feComponentTransfer>
        <feFuncA type="linear" slope="0.2" />
      </feComponentTransfer>
      <feMerge>
        <feMergeNode />
        <feMergeNode in="SourceGraphic" />
      </feMerge>
    </filter>
  </defs>
  <g transform="translate(30, 35) scale(0.32)" filter="url(#drop-shadow)">
    <path stroke="#fff" stroke-width="4" fill="url(#emblem-gradient)" d="M582.237,195.309C345.522,377.81,684.979,571.946,684.979,571.946s376.6,158.9,0,312.016,37.328-454.75,37.328-454.75,306.276-524.528,41.864-257.654S582.237,195.309,582.237,195.309Z" transform="translate(-173, 10)" />
  </g>
  <g id="gritsa-text">
    <path d="M352 -204C360 -204 365 -199 365 -189C381 -132 493 85 574 207C577 212 579 218 579 225C579 253 553 290 534 290C530 290 526 288 523 284L520 277C487 224 389 67 271 67C219 67 182 96 182 171C182 212 194 256 214 298C241 292 270 288 302 288C472 288 696 390 696 520C696 593 627 653 544 653C422 653 240 523 157 366C137 385 125 413 125 453C125 520 159 584 226 615C229 619 230 622 230 625C230 634 217 640 199 640C147 640 50 597 50 474C50 412 84 361 139 328C122 288 113 247 113 206C113 72 211 22 287 22C330 22 368 38 403 60C349 -29 300 -111 298 -137C296 -173 332 -204 352 -204ZM274 331C260 331 246 332 232 334C313 473 475 594 586 594C622 594 640 581 640 553C640 465 463 331 274 331Z" fill="url(#text-gradient-subtle)" transform="translate(265, 200) scale(0.165, -0.165)" />
    <path d="M226 0C284 0 353 43 419 137C423 145 424 155 424 163C424 186 414 206 403 206C400 206 396 204 393 201C338 120 254 40 213 40C198 40 194 49 194 61C194 116 306 250 335 280C341 286 343 293 343 302C343 328 324 365 307 365C303 365 300 364 297 360C277 345 242 323 196 323H186C209 365 222 402 222 418C222 442 211 452 196 452C164 452 114 406 114 356C114 345 117 335 122 326C105 290 77 244 48 201C45 196 43 190 43 183C43 158 58 136 69 136C71 136 72 136 74 137C106 183 138 236 165 285C184 274 207 267 231 266C169 201 125 139 125 93C125 44 176 0 226 0Z" fill="url(#text-gradient-subtle)" transform="translate(362.845, 200) scale(0.165, -0.165)" />
    <path d="M221 394C250 394 280 424 280 458C280 483 264 501 240 501C209 501 182 468 182 436C182 413 194 394 221 394ZM108 0C155 0 223 52 279 137C283 145 284 155 284 164C284 186 274 207 263 207C260 207 256 205 253 201C214 142 132 48 90 48C80 48 75 54 75 64C75 112 156 230 187 280C191 286 192 293 192 301C192 328 171 361 155 361C152 361 149 359 146 356C124 330 14 171 14 105C14 65 53 0 108 0Z" fill="url(#text-gradient-subtle)" transform="translate(419.77000000000004, 200) scale(0.165, -0.165)" />
    <path d="M127 -3C200 -3 273 62 327 137C330 145 332 154 332 163C332 186 322 207 311 207C308 207 304 205 301 201C241 113 162 41 112 41C91 41 83 52 83 71C83 119 139 215 196 301C231 302 268 303 294 303C302 303 305 308 305 314C305 330 287 355 252 360C250 361 244 361 236 361C253 387 270 409 282 427C286 433 288 440 288 448C288 475 266 508 250 508C247 508 244 506 241 503C231 492 187 431 140 359C112 358 86 356 70 354C62 353 59 349 59 343C59 328 80 305 102 300C55 224 15 145 15 104C15 67 50 -3 127 -3Z" fill="url(#text-gradient-subtle)" transform="translate(453.595, 200) scale(0.165, -0.165)" />
    <path d="M143 -3C206 -3 241 33 241 95C241 137 228 222 228 259C228 304 245 325 269 355C273 359 274 363 274 368C274 388 241 416 216 416C207 416 199 413 194 405C170 372 56 218 13 151C3 144 -5 130 -5 109C-5 62 58 -3 143 -3ZM121 35C92 35 62 83 59 115C96 162 132 227 161 273V181C161 85 158 35 121 35Z" fill="url(#text-gradient-subtle)" transform="translate(495.34000000000003, 200) scale(0.165, -0.165)" />
    <path d="M103 -2C137 -2 176 25 213 73C226 37 259 0 301 0C352 0 414 52 471 137C475 145 476 155 476 164C476 186 466 207 455 207C452 207 448 205 445 201C391 121 324 48 283 48C272 48 268 54 268 64C268 112 341 223 379 273C382 276 383 280 383 284C383 302 354 325 333 325C328 325 323 323 319 319C299 345 259 375 226 375C144 375 10 184 10 95C10 44 58 -2 103 -2ZM88 42C78 42 73 49 73 60C73 123 206 322 263 322C273 322 277 316 277 305C277 244 145 42 88 42Z" fill="url(#text-gradient-subtle)" transform="translate(544.015, 200) scale(0.165, -0.165)" />
  </g>
  <text x="265" y="275" fill="#1E3A52" font-family="'Helvetica Neue', 'Arial', sans-serif" font-size="42" font-weight="300" letter-spacing="2">Hire. Build. Launch.</text>
</svg>