<svg xmlns="http://www.w3.org/2000/svg" fill="none" viewBox="0 0 152 30" height="30" width="152">
<path fill="black" d="M3.78174 30C3.78174 30 -4.81258 16.7838 3.91081 0C3.91081 0 21.0007 0.201944 29.9823 14.9963C29.9823 14.9963 21.76 29.6335 3.77415 30H3.78174ZM7.02359 3.29095C1.50409 15.0935 11.5561 22.1391 11.5561 22.1391C9.22531 24.54 5.23943 25.9162 5.23943 25.9162L5.37609 26.3201C5.37609 26.3201 18.9584 23.2835 20.2339 12.2663C22.0712 12.9319 23.9009 13.9342 25.6547 15.819L25.8521 15.5647C18.594 5.50486 6.97803 9.85789 6.97803 9.85789C6.97803 9.85789 6.46177 6.47719 7.44875 3.32087L7.02359 3.28347V3.29095Z"></path>
<path fill="black" d="M44.9542 9.25977H40.528C40.2091 9.25977 39.9434 9.51407 39.9434 9.83568V21.8476C39.9434 22.1618 40.2015 22.4161 40.528 22.4161H41.4314C41.7503 22.4161 42.0084 22.1618 42.0084 21.8476V17.9434H44.7188C47.9075 17.9434 50.0561 16.1782 50.0561 13.5081C50.0561 10.8379 48.0518 9.25977 44.9466 9.25977H44.9542ZM42.016 11.2269H44.8858C45.8197 11.2269 47.9986 11.4512 47.9986 13.5904C47.9986 15.0339 46.7383 15.9688 44.7796 15.9688H42.016V11.2269Z"></path>
<path fill="black" d="M63.7142 17.0901C65.6882 16.5366 66.8346 15.1604 66.8346 13.2531C66.8346 12.2659 66.4322 11.301 65.7414 10.6204C64.8531 9.74528 63.4941 9.2666 61.8997 9.2666H56.775C56.4562 9.2666 56.1904 9.5209 56.1904 9.84252V21.8545C56.1904 22.1686 56.4486 22.4229 56.775 22.4229H57.6785C57.9974 22.4229 58.2555 22.1686 58.2555 21.8545V17.4491H61.3759L65.0884 22.206C65.2023 22.3481 65.3693 22.4304 65.5515 22.4304H66.7056C66.9257 22.4304 67.1307 22.3033 67.2218 22.1088C67.3205 21.9143 67.2977 21.6825 67.1611 21.503L63.7067 17.0976L63.7142 17.0901ZM58.2707 11.2262H61.8542C62.7349 11.2262 64.7772 11.4282 64.7772 13.313C64.7772 14.9211 63.1752 15.4895 61.801 15.4895H58.2707V11.2262Z"></path>
<path fill="black" d="M82.7553 20.4483H75.4821V16.7684H81.8898C82.2087 16.7684 82.4668 16.5141 82.4668 16.1925V15.3698C82.4668 15.0557 82.2087 14.7939 81.8898 14.7939H75.4821V11.2187H82.6718C82.9907 11.2187 83.2564 10.9644 83.2564 10.6428V9.82006C83.2564 9.50592 82.9983 9.24414 82.6718 9.24414H73.994C73.6751 9.24414 73.417 9.49844 73.417 9.82006V21.832C73.417 22.1462 73.6751 22.4005 73.994 22.4005H82.7553C83.0742 22.4005 83.3399 22.1462 83.3399 21.832V21.0093C83.3399 20.6952 83.0818 20.4334 82.7553 20.4334V20.4483Z"></path>
<path fill="black" d="M101.781 9.25943H100.931C100.741 9.25943 100.559 9.35667 100.452 9.51373L96.0337 15.9236L91.6227 9.51373C91.5164 9.35667 91.3342 9.25943 91.1444 9.25943H90.2941C89.9752 9.25943 89.7095 9.51373 89.7095 9.83535V21.8473C89.7095 22.1615 89.9676 22.4158 90.2941 22.4158H91.1672C91.486 22.4158 91.7442 22.1615 91.7442 21.8473V13.2534L95.5099 18.6536C95.7225 18.9603 96.3222 18.9603 96.5348 18.6536L100.301 13.2534V21.8473C100.301 22.1615 100.559 22.4158 100.885 22.4158H101.789C102.107 22.4158 102.373 22.1615 102.373 21.8473V9.82787C102.373 9.51373 102.115 9.25195 101.789 9.25195L101.781 9.25943Z"></path>
<path fill="black" d="M110.148 9.25977H111.051C111.37 9.25977 111.636 9.51407 111.636 9.83568V21.8476C111.636 22.1618 111.378 22.4161 111.059 22.4161H110.148C109.829 22.4161 109.571 22.1618 109.571 21.8476V9.83568C109.571 9.52155 109.829 9.25977 110.155 9.25977H110.148Z"></path>
<path fill="black" d="M128.179 20.4483H120.906V16.7684H127.313C127.632 16.7684 127.89 16.5141 127.89 16.1925V15.3698C127.89 15.0557 127.632 14.7939 127.313 14.7939H120.906V11.2187H128.095C128.414 11.2187 128.68 10.9644 128.68 10.6428V9.82006C128.68 9.50592 128.422 9.24414 128.095 9.24414H119.418C119.099 9.24414 118.833 9.49844 118.833 9.82006V21.832C118.833 22.1462 119.091 22.4005 119.418 22.4005H128.179C128.498 22.4005 128.764 22.1462 128.764 21.832V21.0093C128.764 20.6952 128.505 20.4334 128.179 20.4334V20.4483Z"></path>
<path fill="black" d="M146.096 21.4955L142.642 17.0901C144.616 16.5366 145.762 15.1604 145.762 13.2531C145.762 12.2659 145.368 11.301 144.669 10.6204C143.788 9.74528 142.422 9.2666 140.827 9.2666H135.703C135.384 9.2666 135.118 9.5209 135.118 9.84252V21.8545C135.118 22.1686 135.376 22.4229 135.703 22.4229H136.606C136.925 22.4229 137.191 22.1686 137.191 21.8545V17.4491H140.311L144.024 22.206C144.138 22.3481 144.305 22.4304 144.487 22.4304H145.641C145.861 22.4304 146.066 22.3033 146.157 22.1088C146.256 21.9143 146.233 21.6825 146.096 21.503V21.4955ZM137.191 11.2262H140.774C141.655 11.2262 143.697 11.4282 143.697 13.313C143.697 14.9211 142.095 15.4895 140.721 15.4895H137.191V11.2262Z"></path>
<path fill="black" d="M148.814 9.95518C148.814 9.13244 149.483 8.44434 150.325 8.44434C151.168 8.44434 151.836 9.12496 151.836 9.93274C151.836 10.7555 151.168 11.4436 150.325 11.4436C149.483 11.4436 148.814 10.7704 148.814 9.95518ZM151.669 9.9477C151.669 9.20724 151.092 8.60888 150.333 8.60888C149.574 8.60888 148.997 9.21472 148.997 9.9477C148.997 10.6807 149.574 11.2865 150.333 11.2865C151.092 11.2865 151.669 10.6807 151.669 9.9477ZM149.741 9.30447C149.741 9.22968 149.801 9.16236 149.885 9.16236H150.432C150.773 9.16236 151.024 9.32691 151.024 9.64105C151.024 9.87291 150.895 10.0375 150.682 10.1122L150.978 10.4563C151.016 10.5012 151.024 10.5311 151.024 10.5685C151.024 10.6433 150.963 10.7106 150.887 10.7106C150.826 10.7106 150.781 10.6732 150.75 10.6358L150.348 10.1571H150.037V10.561C150.037 10.6433 149.968 10.7181 149.893 10.7181C149.809 10.7181 149.748 10.6508 149.748 10.561V9.31195L149.741 9.30447ZM150.409 9.9103C150.606 9.9103 150.72 9.80559 150.72 9.66348C150.72 9.49894 150.606 9.41666 150.409 9.41666H150.037V9.9103H150.409Z"></path>
</svg>
